<svg xmlns="http://www.w3.org/2000/svg" xmlns:xlink="http://www.w3.org/1999/xlink" width="75" height="75" viewBox="0 0 75 75">
    <defs>
        <linearGradient id="a" x1="86.704%" x2="29.916%" y1="100%" y2="13.474%">
            <stop offset="0%" stop-color="#354E7F"/>
            <stop offset="100%" stop-color="#506691"/>
        </linearGradient>
        <linearGradient id="b" x1="104.395%" x2="29.916%" y1="100%" y2="13.474%">
            <stop offset="0%" stop-color="#354E7F"/>
            <stop offset="100%" stop-color="#506691"/>
        </linearGradient>
        <path id="c" d="M0 .1h11.429v10.714H0z"/>
    </defs>
    <g fill="none" fill-rule="evenodd">
        <path fill="#345B8F" fill-rule="nonzero" d="M29.399 74.817c20.433-1.259 48.523-4.664 44.9-35.545C70.679 8.391 50.815-5.06 33.39 1.716 15.965 8.492 30.003 18.118 8.932 34.642c-21.07 16.523.034 41.433 20.467 40.175z" opacity=".048"/>
        <g fill-rule="nonzero" transform="translate(13.767 13.318)">
            <path fill="url(#a)" stroke="#364E80" stroke-width="2" d="M0 4.206h31.131c4.484 0 6.726 1.983 6.726 5.949v33.287H9.027C3.01 43.676 0 41.369 0 36.522V4.206z"/>
            <path fill="#FFF" stroke="#364E80" stroke-width="2" d="M7.143 0H41.21c4.907 0 7.36 2.408 7.36 7.224v40.42h-31.55c-6.585.284-9.878-2.517-9.878-8.403V0z"/>
            <path fill="url(#b)" stroke="#354E7F" stroke-width="2" d="M15 47.664c2.168 0 3.82-.811 4.953-2.432 1.663-2.378 1.09-5.98 1.09-5.98h35.386c-1.678 5.608-4.047 8.412-7.108 8.412H15z"/>
            <ellipse cx="19.643" cy="11.565" fill="url(#a)" rx="3.214" ry="3.154"/>
            <ellipse cx="19.643" cy="22.079" fill="url(#a)" rx="3.214" ry="3.154"/>
            <ellipse cx="19.643" cy="32.593" fill="url(#a)" rx="3.214" ry="3.154"/>
            <rect width="17.143" height="1.402" x="27.143" y="9.112" fill="url(#a)" rx=".701"/>
            <rect width="5" height="1.402" x="27.143" y="12.617" fill="url(#a)" rx=".701"/>
            <rect width="13.571" height="1.402" x="27.143" y="19.626" fill="url(#a)" rx=".701"/>
            <rect width="5" height="1.402" x="27.143" y="23.131" fill="url(#a)" rx=".701"/>
            <rect width="13.571" height="1.402" x="27.143" y="29.439" fill="url(#a)" rx=".701"/>
            <rect width="5" height="1.402" x="27.143" y="33.645" fill="url(#a)" rx=".701"/>
        </g>
        <ellipse cx="10.714" cy="10.514" fill="#F7B241" fill-rule="nonzero" rx="10.714" ry="10.514" transform="translate(6.624 42.757)"/>
        <g transform="translate(12.338 49.186)">
            <mask id="d" fill="#fff">
                <use xlink:href="#c"/>
            </mask>
            <path fill="#FFF" d="M0 6.238c.037-.886.798-1.6 1.854-2.072.45-.204.877-.21 1.117.32.28.614-.198.817-.594.989-.791.347-1.187.917-.8 1.743.365.777 1.096.932 1.854.66.636-.228.898-.745.882-1.449a86.717 86.717 0 0 1 0-3.452C4.34 1.599 4.963.713 6.181.266c1.12-.413 2.525-.031 3.28.89 1.18 1.436.307 3.94-1.502 4.316-.396.081-.737.006-.91-.388-.159-.36.067-.63.313-.851.12-.107.268-.175.405-.256.594-.357 1.08-.805.786-1.58-.274-.721-.905-.9-1.59-.806-.78.104-1.212.58-1.214 1.412-.006 1.274.039 2.551-.022 3.825-.067 1.425-1.55 2.695-2.98 2.646C1.211 9.412-.028 8.14 0 6.238" mask="url(#d)"/>
        </g>
    </g>
</svg>
